<svg width="971" height="394" viewBox="0 0 971 394" fill="none" xmlns="http://www.w3.org/2000/svg">
<path d="M387.835 51.3928C387.835 23.3408 410.436 0.457832 438.383 0.00683232C466.323 -0.448168 489.752 21.8798 490.598 49.8128C490.886 59.3278 488.559 68.2868 484.304 76.0408C482.726 78.9108 483.222 82.4928 485.588 84.7548C498.441 97.0088 506.46 114.279 506.46 133.401C506.46 167.372 481.124 195.541 448.361 200.01L428.805 199.82C396.666 194.8 372 166.931 372 133.401C372 114.284 380.017 97.0128 392.867 84.7548C395.244 82.4868 395.719 78.8928 394.137 76.0088C390.126 68.6948 387.835 60.3098 387.835 51.3928Z" fill="#0E538C"/>
<path d="M429.37 164.391V156.745V136.5V128.907V93.805C429.37 88.316 433.705 84 439.193 84C444.681 84 448.996 88.317 448.996 93.805V153.567L448.929 153.618V339.669H429.389V164.726C429.37 164.609 429.37 164.507 429.37 164.391Z" fill="#0B4870"/>
<path d="M550.093 165.009C548.513 167.893 548.986 171.487 551.362 173.753C564.214 186.012 572.232 203.281 572.232 222.399C572.232 255.93 547.563 283.798 515.425 288.818L495.871 289.009C463.106 284.538 437.77 256.37 437.77 222.399C437.77 203.278 445.791 186.008 458.642 173.753C461.008 171.493 461.503 167.909 459.925 165.041C455.67 157.288 453.343 148.328 453.63 138.812C454.478 110.88 477.906 88.5509 505.848 89.0069C533.791 89.4589 556.395 112.339 556.395 140.391C556.395 149.309 554.105 157.696 550.093 165.009Z" fill="#2A94F4"/>
<path d="M532.103 231.62L515.438 248.483V256.131C515.438 256.247 515.438 256.347 515.419 256.464V339.958H495.88V245.355L495.812 245.303V185.543C495.812 180.055 500.127 175.738 505.616 175.738C511.105 175.738 515.438 180.054 515.438 185.543V220.643L518.366 217.9C522.097 213.968 528.353 213.968 532.103 217.9C536.016 221.617 536.016 227.89 532.103 231.62Z" fill="#0B4870"/>
<path d="M478.747 231.62L495.412 248.483V256.131C495.412 256.247 495.412 256.347 495.431 256.464V339.958H514.97V245.355L515.038 245.303V185.543C515.038 180.055 510.723 175.738 505.234 175.738C499.745 175.738 495.412 180.054 495.412 185.543V220.643L492.484 217.9C488.753 213.968 482.497 213.968 478.747 217.9C474.834 221.617 474.834 227.89 478.747 231.62Z" fill="#0B4870"/>
<path d="M78.1502 340H138.591C178.122 340 194.457 320.724 194.457 295.568C194.457 269.105 176.162 254.73 160.806 253.75V252.116C175.181 248.196 187.923 238.722 187.923 217.159C187.923 192.656 171.588 172.727 136.63 172.727H78.1502V340ZM98.4059 322.031V263.878H139.571C161.46 263.878 175.181 278.58 175.181 295.568C175.181 310.27 165.054 322.031 138.591 322.031H98.4059ZM98.4059 246.236V190.696H136.63C158.846 190.696 168.647 202.457 168.647 217.159C168.647 234.801 154.272 246.236 135.977 246.236H98.4059ZM304.189 288.707C304.189 312.23 286.22 323.011 271.845 323.011C255.837 323.011 244.402 311.25 244.402 292.955V214.545H225.126V294.261C225.126 326.278 242.115 341.634 265.638 341.634C284.587 341.634 297.001 331.506 302.882 318.764H304.189V340H323.464V214.545H304.189V288.707ZM358.769 340H378.045V214.545H358.769V340ZM368.57 193.636C376.084 193.636 382.292 187.756 382.292 180.568C382.292 173.381 376.084 167.5 368.57 167.5C361.056 167.5 354.849 173.381 354.849 180.568C354.849 187.756 361.056 193.636 368.57 193.636ZM581.255 340H600.531V260.611C600.531 243.622 613.926 231.207 632.221 231.207C637.367 231.207 642.676 232.188 643.983 232.514V212.912C641.777 212.749 636.713 212.585 633.855 212.585C618.826 212.585 605.758 221.08 601.184 233.494H599.877V214.545H581.255V340ZM715.613 342.614C741.096 342.614 759.718 329.872 765.598 310.923L746.976 305.696C742.076 318.764 730.723 325.298 715.613 325.298C692.988 325.298 677.388 310.678 676.49 283.807H767.559V275.639C767.559 228.92 739.789 212.912 713.652 212.912C679.675 212.912 657.132 239.702 657.132 278.253C657.132 316.804 679.348 342.614 715.613 342.614ZM676.49 267.145C677.797 247.624 691.6 230.227 713.652 230.227C734.561 230.227 747.956 245.909 747.956 267.145H676.49ZM849.48 342.614C874.963 342.614 893.585 329.872 899.466 310.923L880.843 305.696C875.943 318.764 864.59 325.298 849.48 325.298C826.855 325.298 811.255 310.678 810.357 283.807H901.426V275.639C901.426 228.92 873.656 212.912 847.52 212.912C813.542 212.912 791 239.702 791 278.253C791 316.804 813.216 342.614 849.48 342.614ZM810.357 267.145C811.664 247.624 825.467 230.227 847.52 230.227C868.429 230.227 881.824 245.909 881.824 267.145H810.357Z" fill="#0B4870"/>
</svg>
